<svg width="59" height="59" viewBox="0 0 59 59" fill="none" xmlns="http://www.w3.org/2000/svg">
<g id="Group 96">
<g id="Ellipse 129">
<circle cx="29.5" cy="29.5" r="29.5" fill="white"/>
<circle cx="29.5" cy="29.5" r="29.5" fill="#FF6632" fill-opacity="0.35"/>
</g>
<g id="Group 95">
<path id="Vector" d="M44.381 38.0952C44.381 38.8277 44.09 39.5302 43.572 40.0482C43.0541 40.5662 42.3516 40.8571 41.6191 40.8571H16.7619C16.0294 40.8571 15.3269 40.5662 14.8089 40.0482C14.291 39.5302 14 38.8277 14 38.0952V22.9048C14 22.1723 14.291 21.4698 14.8089 20.9518C15.3269 20.4338 16.0294 20.1429 16.7619 20.1429H22.2857L25.0476 16H33.3333L36.0952 20.1429H41.6191C42.3516 20.1429 43.0541 20.4338 43.572 20.9518C44.09 21.4698 44.381 22.1723 44.381 22.9048V38.0952Z" stroke="#171717" stroke-width="2" stroke-linecap="round" stroke-linejoin="round"/>
<path id="Vector_2" d="M29.1908 35.3333C32.2415 35.3333 34.7146 32.8602 34.7146 29.8095C34.7146 26.7587 32.2415 24.2856 29.1908 24.2856C26.1401 24.2856 23.667 26.7587 23.667 29.8095C23.667 32.8602 26.1401 35.3333 29.1908 35.3333Z" stroke="#171717" stroke-width="2" stroke-linecap="round" stroke-linejoin="round"/>
</g>
</g>
</svg>
